# xmcd CD database file
#
# Track frame offsets:
#	150
#	14442
#	28209
#	41818
#	53637
#	69498
#	81670
#	107164
#	120087
#	132689
#	148909
#	167794
#	190977
#	221450
#	235101
#	251003
#	269987
#	298062
#	312590
#
# Disc length: 4670 seconds
#
# Revision: 0
# Processed by: cddbd v1.5.2PL0 Copyright (c) Steve Scherf et al.
# Submitted via: cdripper 1,0,33,916
#
DISCID=33123c13
DTITLE=Blakey Art - Simplicity - CD 1
DYEAR=1900
DGENRE=Jazz
TTITLE0=Blowin' the blues away
TTITLE1=Nice work if you can get it
TTITLE2=The thin man
TTITLE3=Cu-Ba
TTITLE4=Four in one
TTITLE5=On a slow boat to China
TTITLE6=Zoot case
TTITLE7=Safari
TTITLE8=Bye-Ya
TTITLE9=C.T.A.
TTITLE10=Nothing but the soul
TTITLE11=Once in q while
TTITLE12=Quicksilver
TTITLE13=Salute to birdland
TTITLE14=Bean and the boys
TTITLE15=The third world
TTITLE16=The 52nd street theme
TTITLE17=Liza
TTITLE18=Nica's tempo
EXTD=
EXTT0=
EXTT1=
EXTT2=
EXTT3=
EXTT4=
EXTT5=
EXTT6=
EXTT7=
EXTT8=
EXTT9=
EXTT10=
EXTT11=
EXTT12=
EXTT13=
EXTT14=
EXTT15=
EXTT16=
EXTT17=
EXTT18=
PLAYORDER=
